<svg preserveAspectRatio="none" overflow="visible" style="display: block;" width="7" height="12" viewBox="0 0 7 12" fill="none" xmlns="http://www.w3.org/2000/svg">
<path id="Vector" fill-rule="evenodd" clip-rule="evenodd" d="M0.353974 6.87983C0.127313 6.64436 0 6.32515 0 5.99234C0 5.65953 0.127313 5.34033 0.353974 5.10485L4.91783 0.367661C5.14489 0.132173 5.45281 -7.8473e-05 5.77384 3.49332e-08C5.9328 3.89081e-05 6.0902 0.0325644 6.23704 0.0957197C6.38389 0.158875 6.51731 0.251423 6.62968 0.36808C6.74206 0.484737 6.83119 0.623218 6.89199 0.775616C6.95278 0.928015 6.98406 1.09135 6.98402 1.25629C6.98398 1.42122 6.95263 1.58454 6.89177 1.73691C6.8309 1.88928 6.74171 2.02772 6.62928 2.14432L2.92155 5.99234L6.63009 9.84037C6.74574 9.95617 6.83801 10.0947 6.90151 10.2479C6.96502 10.4011 6.99848 10.5659 6.99995 10.7326C7.00142 10.8994 6.97087 11.0648 6.91008 11.2191C6.8493 11.3735 6.75949 11.5138 6.6459 11.6317C6.53231 11.7497 6.39721 11.843 6.24849 11.9063C6.09977 11.9695 5.94041 12.0013 5.7797 12C5.61899 11.9986 5.46015 11.964 5.31245 11.8983C5.16475 11.8325 5.03115 11.7369 4.91945 11.617L0.35236 6.87983H0.353974Z" fill="#0B1324"/>
</svg>
