<svg preserveAspectRatio="none" overflow="visible" style="display: block;" width="8.67521" height="14.3326" viewBox="0 0 8.67521 14.3326" fill="none" xmlns="http://www.w3.org/2000/svg">
<g id="Group">
<path id="Vector" fill-rule="evenodd" clip-rule="evenodd" d="M0.438779 8.21723C0.157878 7.93598 9.91821e-05 7.55473 9.91821e-05 7.15723C9.91821e-05 6.75972 0.157878 6.37848 0.438779 6.09723L6.09478 0.439227C6.37617 0.157965 6.75777 5.9325e-06 7.15563 9.97007e-05C7.35263 0.00014613 7.54769 0.0389939 7.72968 0.114425C7.91167 0.189857 8.07701 0.300394 8.21628 0.439726C8.35555 0.579059 8.46601 0.744458 8.54135 0.926479C8.6167 1.1085 8.65545 1.30358 8.65541 1.50058C8.65536 1.69758 8.61651 1.89264 8.54108 2.07463C8.46565 2.25661 8.35511 2.42196 8.21578 2.56123L3.62078 7.15723L8.21678 11.7532C8.36011 11.8915 8.47446 12.057 8.55316 12.24C8.63186 12.4229 8.67333 12.6197 8.67515 12.8189C8.67697 13.0181 8.63911 13.2156 8.56378 13.4C8.48845 13.5844 8.37715 13.7519 8.23637 13.8928C8.0956 14.0337 7.92818 14.1452 7.74387 14.2207C7.55956 14.2962 7.36206 14.3342 7.16289 14.3326C6.96372 14.331 6.76687 14.2897 6.58383 14.2111C6.40079 14.1326 6.23522 14.0184 6.09678 13.8752L0.436779 8.21723H0.438779Z" fill="url(#paint0_linear_0_196)"/>
</g>
<defs>
<linearGradient id="paint0_linear_0_196" x1="9.91821e-05" y1="7.16637" x2="8.67521" y2="7.16637" gradientUnits="userSpaceOnUse">
<stop stop-color="#006CDC"/>
<stop offset="1" stop-color="#0092FF"/>
</linearGradient>
</defs>
</svg>
