<svg preserveAspectRatio="none" overflow="visible" style="display: block;" width="25.6667" height="16.3333" viewBox="0 0 25.6667 16.3333" fill="none" xmlns="http://www.w3.org/2000/svg">
<path id="Vector" d="M17.5 7C19.4367 7 20.9883 5.43667 20.9883 3.5C20.9883 1.56333 19.4367 0 17.5 0C15.5633 0 14 1.56333 14 3.5C14 5.43667 15.5633 7 17.5 7ZM8.16667 7C10.1033 7 11.655 5.43667 11.655 3.5C11.655 1.56333 10.1033 0 8.16667 0C6.23 0 4.66667 1.56333 4.66667 3.5C4.66667 5.43667 6.23 7 8.16667 7ZM8.16667 9.33333C5.44833 9.33333 0 10.6983 0 13.4167V15.1667C0 15.8083 0.525 16.3333 1.16667 16.3333H15.1667C15.8083 16.3333 16.3333 15.8083 16.3333 15.1667V13.4167C16.3333 10.6983 10.885 9.33333 8.16667 9.33333ZM17.5 9.33333C17.1617 9.33333 16.7767 9.35667 16.3683 9.39167C16.3917 9.40333 16.4033 9.42667 16.415 9.43833C17.745 10.4067 18.6667 11.7017 18.6667 13.4167V15.1667C18.6667 15.575 18.585 15.9717 18.4567 16.3333H24.5C25.1417 16.3333 25.6667 15.8083 25.6667 15.1667V13.4167C25.6667 10.6983 20.2183 9.33333 17.5 9.33333Z" fill="white"/>
</svg>
