<svg preserveAspectRatio="none" overflow="visible" style="display: block;" width="20" height="21.6199" viewBox="0 0 20 21.6199" fill="none" xmlns="http://www.w3.org/2000/svg">
<g id="Group">
<g id="Vector">
</g>
<path id="Vector_2" d="M1 16.8059H2V4.16586C2.00003 3.851 2.09914 3.54413 2.28328 3.28873C2.46743 3.03333 2.72727 2.84236 3.026 2.74286L11.026 0.0768613C11.2515 0.00176838 11.4915 -0.0186831 11.7264 0.0171913C11.9614 0.0530657 12.1844 0.144239 12.3772 0.283202C12.5699 0.422164 12.7269 0.604938 12.8352 0.816467C12.9435 1.028 13 1.26223 13 1.49986V16.8059H14V7.79586C14 7.72192 14.0165 7.6489 14.0482 7.58208C14.0798 7.51525 14.1259 7.45628 14.1831 7.40942C14.2403 7.36255 14.3072 7.32895 14.3789 7.31104C14.4507 7.29314 14.5255 7.29137 14.598 7.30586L16.794 7.74586C17.1339 7.8138 17.4398 7.99737 17.6597 8.26536C17.8795 8.53336 17.9998 8.86922 18 9.21586V16.8059H19C19.2652 16.8059 19.5196 16.9112 19.7071 17.0988C19.8946 17.2863 20 17.5406 20 17.8059C20 18.0711 19.8946 18.3254 19.7071 18.513C19.5196 18.7005 19.2652 18.8059 19 18.8059H1C0.734784 18.8059 0.48043 18.7005 0.292893 18.513C0.105357 18.3254 0 18.0711 0 17.8059C0 17.5406 0.105357 17.2863 0.292893 17.0988C0.48043 16.9112 0.734784 16.8059 1 16.8059Z" fill="white"/>
</g>
</svg>
